<svg width="10" height="10" viewBox="0 0 10 10" fill="none" xmlns="http://www.w3.org/2000/svg">
<path d="M9.06588 1.99481C9.35877 1.70191 9.35877 1.22704 9.06588 0.934147C8.77298 0.641254 8.29811 0.641254 8.00522 0.934147L5.00002 3.93935L1.99482 0.934148C1.70192 0.641255 1.22705 0.641255 0.934157 0.934148C0.641264 1.22704 0.641264 1.70191 0.934157 1.99481L3.93936 5.00001L0.934147 8.00522C0.641254 8.29811 0.641254 8.77298 0.934147 9.06588C1.22704 9.35877 1.70191 9.35877 1.99481 9.06588L5.00002 6.06067L8.00522 9.06588C8.29812 9.35877 8.77299 9.35877 9.06588 9.06588C9.35878 8.77298 9.35878 8.29811 9.06588 8.00522L6.06068 5.00001L9.06588 1.99481Z" fill="#D83F22" stroke="#D83F22" stroke-linecap="round"/>
</svg>
