<svg width="32" height="32" viewBox="0 0 32 32" fill="none" xmlns="http://www.w3.org/2000/svg">
<g clip-path="url(#clip0_274_2787)">
<path d="M16.4998 11.1831C20.4034 11.4412 23.4998 14.6988 23.4998 18.6667C23.4998 22.8025 20.1357 26.1667 15.9998 26.1667C12.032 26.1667 8.77441 23.0703 8.51632 19.1667H15.9998H16.4998V18.6667V11.1831ZM28.8332 18.6667C28.8332 25.7545 23.0864 31.5 15.9998 31.5C8.91328 31.5 3.1665 25.7545 3.1665 18.6667C3.1665 11.5788 8.91328 5.83333 15.9998 5.83333C23.0864 5.83333 28.8332 11.5788 28.8332 18.6667ZM27.1665 18.6667C27.1665 12.5092 22.1573 7.5 15.9998 7.5C9.84236 7.5 4.83317 12.5092 4.83317 18.6667C4.83317 24.8241 9.84236 29.8333 15.9998 29.8333C22.1573 29.8333 27.1665 24.8241 27.1665 18.6667ZM13.8332 0.5H18.1665V2.32487C16.6481 2.11332 15.3244 2.11678 13.8332 2.3248V0.5ZM28.6261 5.88533L27.5744 6.93702C27.177 6.5464 26.7603 6.17717 26.3263 5.82866L27.4478 4.70711L28.6261 5.88533Z" fill="#0729A1" stroke="black"/>
</g>
<defs>
<clipPath id="clip0_274_2787">
<rect width="32" height="32" fill="white"/>
</clipPath>
</defs>
</svg>
