<svg width="32" height="32" viewBox="0 0 32 32" fill="none" xmlns="http://www.w3.org/2000/svg">
<path d="M26.3075 9.81831L26.3074 9.81813C25.7094 8.7607 25.0649 8.17952 24.4248 7.87983C23.7842 7.57988 23.093 7.53613 22.3549 7.65286C21.6102 7.77065 20.8433 8.04757 20.0676 8.36521C19.8581 8.45098 19.6457 8.54082 19.4328 8.63081C18.8798 8.86467 18.3242 9.09962 17.8113 9.26726C16.598 9.66391 15.325 9.64062 14.1856 9.26713C13.674 9.09958 13.1197 8.86502 12.5679 8.63151C12.3542 8.54107 12.1408 8.45079 11.9304 8.36462C11.1549 8.04694 10.3882 7.77008 9.64344 7.65237C8.90541 7.53572 8.21415 7.57957 7.5733 7.87963C6.93297 8.17945 6.28822 8.76074 5.68988 9.81815L26.3075 9.81831ZM26.3075 9.81831C26.6588 10.4388 26.9952 11.0287 27.3159 11.5911C28.4684 13.6122 29.4186 15.2783 30.1258 16.731C31.0296 18.5877 31.5 20.0263 31.5 21.3333C31.5 24.7386 28.7398 27.5 25.3333 27.5M26.3075 9.81831L25.3333 27.5M25.3333 27.5C22.8653 27.5 21.6072 26.2681 20.4477 24.9246M25.3333 27.5L20.4477 24.9246M20.4477 24.9246C20.3438 24.8043 20.2397 24.6812 20.1347 24.5571M20.4477 24.9246L20.1347 24.5571M20.1347 24.5571C19.1008 23.3348 17.9739 22.0027 16 22.0027M20.1347 24.5571L16 22.0027M16 22.0027C14.0261 22.0027 12.8992 23.3348 11.8653 24.5571M16 22.0027L11.8653 24.5571M11.8653 24.5571C11.7603 24.6812 11.6562 24.8043 11.5523 24.9246M11.8653 24.5571L11.5523 24.9246M11.5523 24.9246C10.3928 26.2681 9.1347 27.5 6.66667 27.5M11.5523 24.9246L6.66667 27.5M6.66667 27.5C3.26021 27.5 0.5 24.7386 0.5 21.3333M6.66667 27.5L0.5 21.3333M0.5 21.3333C0.5 20.0263 0.9704 18.5877 1.87393 16.731M0.5 21.3333L1.87393 16.731M1.87393 16.731C2.57957 15.2809 3.52702 13.6183 4.67582 11.6023M1.87393 16.731L4.67582 11.6023M4.67582 11.6023C4.99826 11.0365 5.33656 10.4428 5.68983 9.81823L4.67582 11.6023ZM20 4.5C20.7047 4.5 21.3297 4.84019 21.7242 5.36789C20.9805 5.52042 20.2839 5.7609 19.6354 6.01693C19.2633 6.16383 18.9215 6.30922 18.5953 6.44797C18.3372 6.55774 18.089 6.66335 17.8432 6.76224C17.7743 5.53395 18.7648 4.5 20 4.5ZM11.1667 21.3333C11.1667 18.8519 9.14814 16.8333 6.66667 16.8333C4.18519 16.8333 2.16667 18.8519 2.16667 21.3333C2.16667 23.8148 4.18519 25.8333 6.66667 25.8333C9.14814 25.8333 11.1667 23.8148 11.1667 21.3333ZM17.8333 18.6667C17.8333 17.6549 17.0138 16.8333 16 16.8333C14.9862 16.8333 14.1667 17.6549 14.1667 18.6667C14.1667 19.6785 14.9862 20.5 16 20.5C17.0138 20.5 17.8333 19.6785 17.8333 18.6667ZM29.8333 21.3333C29.8333 18.8519 27.8148 16.8333 25.3333 16.8333C22.8519 16.8333 20.8333 18.8519 20.8333 21.3333C20.8333 23.8148 22.8519 25.8333 25.3333 25.8333C27.8148 25.8333 29.8333 23.8148 29.8333 21.3333ZM12.3645 6.0174C11.7159 5.76146 11.0193 5.52101 10.2755 5.36821C10.6701 4.84033 11.2951 4.5 12 4.5C13.2352 4.5 14.2257 5.53398 14.1568 6.76229C13.9111 6.66347 13.6629 6.55796 13.4049 6.44831C13.0786 6.3096 12.7367 6.16425 12.3645 6.0174Z" fill="#0729A1" stroke="black"/>
</svg>
