<svg width="32" height="32" viewBox="0 0 32 32" fill="none" xmlns="http://www.w3.org/2000/svg">
<path d="M20.7694 11.7027L20.7693 11.7028L18.9427 14.4414C18.6292 14.9116 18.7564 15.5478 19.2267 15.8613C19.6969 16.1748 20.3332 16.0476 20.6466 15.5773L22.4719 12.8387L22.4723 12.8381C22.7862 12.3686 22.6588 11.7323 22.189 11.4185L20.7694 11.7027ZM20.7694 11.7027C21.0828 11.2326 21.7188 11.1053 22.189 11.4184L20.7694 11.7027ZM16.2953 12.8355L16.2966 12.8363C16.7657 13.15 17.4033 13.0231 17.7187 12.5519L16.2953 12.8355ZM16.2953 12.8355C15.8234 12.5221 15.696 11.8855 16.0115 11.4141L16.012 11.4134L17.8559 8.6482C17.8559 8.64815 17.856 8.64811 17.856 8.64806C18.1714 8.17553 18.809 8.0487 19.2781 8.36233L19.2785 8.36257C19.7508 8.67777 19.8781 9.31522 19.5631 9.78592L19.5627 9.7866L17.719 12.5514L16.2953 12.8355ZM15.3126 18.5736L15.3125 18.5736C12.6743 18.1048 11.0979 17.821 10.1453 17.6496C9.85305 17.5969 9.6195 17.5549 9.43203 17.5213C8.71049 17.3921 8.69167 17.3933 8.65771 17.3954C8.65312 17.3957 8.64825 17.396 8.64133 17.396C8.0402 17.396 7.5154 17.8217 7.39035 18.4115L6.79864 23.6467C6.73262 24.3401 6.95586 24.8801 7.43973 25.2332C7.76241 25.4677 8.43547 25.9491 9.02994 26.3733C9.17607 26.4776 9.31729 26.5783 9.44717 26.6709L9.58396 25.486C9.70865 24.4048 9.84857 23.1885 9.90981 22.6453L9.90989 22.6446C9.98019 22.0286 10.1945 21.4503 10.611 21.0303C11.0387 20.5989 11.6276 20.3873 12.3299 20.4219M15.3126 18.5736L12.3299 20.4219M15.3126 18.5736C15.9191 18.6813 16.1796 19.1646 16.1176 19.6825M15.3126 18.5736L16.1176 19.6825M12.3299 20.4219C12.3957 20.4254 12.7569 20.4592 13.1847 20.4994M12.3299 20.4219L13.1847 20.4994M16.1176 19.6825C16.0557 20.1985 15.6771 20.6587 14.996 20.6587M16.1176 19.6825L14.996 20.6587M14.996 20.6587C14.9968 20.6587 14.9967 20.6587 14.9953 20.6586M14.996 20.6587L14.9953 20.6586M14.9953 20.6586C14.9921 20.6585 14.9818 20.6581 14.9615 20.6569M14.9953 20.6586L14.9615 20.6569M14.9615 20.6569C14.9363 20.6554 14.903 20.6532 14.8618 20.6501M14.9615 20.6569L14.8618 20.6501M14.8618 20.6501C14.7797 20.6439 14.672 20.635 14.5465 20.6242M14.8618 20.6501L14.5465 20.6242M14.5465 20.6242C14.2956 20.6025 13.9787 20.5735 13.6635 20.5441M14.5465 20.6242L13.6635 20.5441M13.6635 20.5441C13.5024 20.5292 13.3392 20.5139 13.1847 20.4994M13.6635 20.5441L13.1847 20.4994M25.7773 18.7948L25.7776 18.7943C26.0536 18.3795 26.6135 18.2677 27.028 18.544C27.4425 18.8204 27.5544 19.3803 27.2777 19.7941L27.2773 19.7947L25.6626 22.2173C25.6626 22.2173 25.6626 22.2174 25.6626 22.2174C25.3863 22.6319 24.826 22.7439 24.412 22.468C23.9975 22.1916 23.8854 21.6313 24.1614 21.2174L25.7773 18.7948ZM21.6822 17.6754L21.6827 17.6747L23.432 15.0507L23.4321 15.0505C23.7443 14.5819 24.3762 14.4559 24.8438 14.7679L24.8442 14.7681C25.3132 15.0805 25.4398 15.7125 25.1269 16.181L25.1266 16.1813L23.3773 18.8053L23.3772 18.8055C23.0653 19.2737 22.4335 19.4004 21.9642 19.0881C21.4961 18.7757 21.3697 18.1424 21.6822 17.6754ZM0.5 6.73467C0.5 6.31731 0.541358 5.90017 0.624249 5.49002L4.30111 9.16689L4.43549 9.30126L4.62519 9.31246C5.17034 9.34466 5.73989 9.15888 6.25887 8.88113C6.78483 8.59964 7.30029 8.20174 7.75042 7.75152C8.20055 7.3013 8.59841 6.78571 8.87986 6.25955C9.15759 5.74036 9.34332 5.1706 9.31113 4.62521L9.29994 4.43554L9.16561 4.30117L5.48979 0.624203C5.89951 0.541335 6.31609 0.5 6.73333 0.5C8.33026 0.5 9.92539 1.10849 11.1424 2.32555C12.4445 3.62759 13.0495 5.36084 12.9594 7.06811C12.8977 8.22746 13.2879 9.36464 14.0427 10.2384C13.3309 11.6418 13.4867 12.9011 14.1449 13.8243C14.7098 14.6166 15.6161 15.117 16.5227 15.2418C16.5367 15.7981 16.7324 16.3276 17.0262 16.7846C16.6583 16.5373 16.2222 16.3566 15.7207 16.2677L11.777 15.5672L10.4776 14.2678L10.4773 14.2675C9.57569 13.3674 8.33633 12.8932 7.06678 12.9607L7.0666 12.9607C5.35978 13.0521 3.62648 12.446 2.32422 11.1438C1.10718 9.92541 0.5 8.33162 0.5 6.73467ZM19.2982 18.4215C19.2381 19.7975 20.2543 21.0421 21.6799 21.5127C21.5662 22.8312 22.4271 24.0557 23.5504 24.6089C24.1986 24.9281 24.9646 25.0444 25.7325 24.8282C26.3514 24.654 26.9395 24.2729 27.4512 23.6635L30.7158 26.9269C31.2394 27.4505 31.5 28.1349 31.5 28.8213C31.5 30.3 30.3024 31.5 28.82 31.5C28.1354 31.5 27.4503 31.2398 26.927 30.7172C26.9265 30.7167 26.926 30.7163 26.9256 30.7158L17.873 21.5059C18.6312 20.3848 18.6415 18.9129 17.9861 17.8047C18.3818 18.0982 18.8329 18.3188 19.2982 18.4215ZM16.7997 23.7627L16.7998 23.7628L20.8387 27.9265C20.5963 28.0808 20.3399 28.2215 20.0697 28.3612C19.9263 28.4353 19.775 28.5109 19.6197 28.5886C19.3084 28.7443 18.9806 28.9082 18.6663 29.0846C17.8037 29.5687 16.9382 30.1996 16.2188 31.2936C15.4485 30.7779 14.3869 30.0631 13.4558 29.4354C12.8948 29.0572 12.3815 28.7107 12.0084 28.4589L11.6524 28.2184L12.2304 22.9074L12.2306 22.9075L12.2316 22.8946C12.2393 22.8022 12.2677 22.7738 12.2693 22.7723C12.2697 22.7719 12.2702 22.7714 12.2709 22.7709C12.2724 22.7698 12.2749 22.7683 12.2797 22.7667C12.2877 22.7641 12.3084 22.759 12.3469 22.7616L12.3469 22.7616C12.4055 22.7655 12.4634 22.7693 12.5206 22.7731C13.7036 22.8514 14.5839 22.9097 15.2802 23.0476C15.9942 23.1891 16.4517 23.4037 16.7997 23.7627ZM30.5 28.6667C30.5 27.6542 29.6785 26.8333 28.6653 26.8333C27.6532 26.8333 26.832 27.6545 26.832 28.6667C26.832 29.6788 27.6532 30.5 28.6653 30.5C29.6785 30.5 30.5 29.6791 30.5 28.6667Z" fill="#0729A1" stroke="black"/>
</svg>
