<svg width="24" height="24" viewBox="0 0 24 24" fill="none" xmlns="http://www.w3.org/2000/svg">
<circle cx="12" cy="12" r="11.5" stroke="white"/>
<path fill-rule="evenodd" clip-rule="evenodd" d="M17.4496 10.8628C18.1935 11.4385 18.1935 12.5615 17.4496 13.1372C15.2014 14.8767 12.691 16.2478 10.0123 17.1992L9.52299 17.373C8.58678 17.7055 7.5979 17.0721 7.47116 16.1057C7.11704 13.4055 7.11704 10.5945 7.47116 7.89434C7.5979 6.92793 8.58678 6.29451 9.52299 6.62702L10.0123 6.80082C12.691 7.75218 15.2014 9.12329 17.4496 10.8628ZM16.7611 12.2474C16.923 12.1222 16.923 11.8778 16.7611 11.7526C14.6072 10.086 12.2021 8.7724 9.63583 7.86094L9.14647 7.68714C8.90276 7.60058 8.62268 7.76555 8.5866 8.04063C8.24522 10.6437 8.24522 13.3563 8.5866 15.9594C8.62268 16.2344 8.90276 16.3994 9.14647 16.3129L9.63582 16.1391C12.2021 15.2276 14.6072 13.914 16.7611 12.2474Z" fill="white"/>
</svg>
