<svg width="33" height="33" viewBox="0 0 33 33" fill="none" xmlns="http://www.w3.org/2000/svg">
<path d="M29.9062 0H3.09375C1.39219 0 0 1.39219 0 3.09375V29.9062C0 31.6078 1.39219 33 3.09375 33H29.9062C31.6078 33 33 31.6078 33 29.9062V3.09375C33 1.39219 31.6078 0 29.9062 0ZM12.375 26.8125H8.25V12.375H12.375V26.8125ZM10.3125 10.3125C9.76549 10.3125 9.24089 10.0952 8.85409 9.70841C8.4673 9.32161 8.25 8.79701 8.25 8.25C8.25 7.70299 8.4673 7.17839 8.85409 6.79159C9.24089 6.4048 9.76549 6.1875 10.3125 6.1875C10.8595 6.1875 11.3841 6.4048 11.7709 6.79159C12.1577 7.17839 12.375 7.70299 12.375 8.25C12.375 8.79701 12.1577 9.32161 11.7709 9.70841C11.3841 10.0952 10.8595 10.3125 10.3125 10.3125ZM26.8125 26.8125H22.6875V18.5625C22.6875 18.0155 22.4702 17.4909 22.0834 17.1041C21.6966 16.7173 21.172 16.5 20.625 16.5C20.078 16.5 19.5534 16.7173 19.1666 17.1041C18.7798 17.4909 18.5625 18.0155 18.5625 18.5625V26.8125H14.4375V12.375H18.5625V14.9346C19.4123 13.7672 20.7158 12.375 22.1719 12.375C24.7376 12.375 26.8125 14.6829 26.8125 17.5312V26.8125Z" fill="white"/>
</svg>
