<svg width="38" height="34" viewBox="0 0 38 34" fill="none" xmlns="http://www.w3.org/2000/svg">
<path fill-rule="evenodd" clip-rule="evenodd" d="M31.2707 17C31.2707 16.4132 30.739 15.9375 30.0832 15.9375H7.9165C7.26066 15.9375 6.729 16.4132 6.729 17C6.729 17.5868 7.26066 18.0625 7.9165 18.0625H30.0832C30.739 18.0625 31.2707 17.5868 31.2707 17Z" fill="#0729A1"/>
<path fill-rule="evenodd" clip-rule="evenodd" d="M31.2707 9.91666C31.2707 9.32985 30.739 8.85416 30.0832 8.85416H7.9165C7.26066 8.85416 6.729 9.32985 6.729 9.91666C6.729 10.5035 7.26066 10.9792 7.9165 10.9792H30.0832C30.739 10.9792 31.2707 10.5035 31.2707 9.91666Z" fill="#0729A1"/>
<path fill-rule="evenodd" clip-rule="evenodd" d="M31.2707 24.0833C31.2707 23.4965 30.739 23.0208 30.0832 23.0208H7.9165C7.26066 23.0208 6.729 23.4965 6.729 24.0833C6.729 24.6701 7.26066 25.1458 7.9165 25.1458H30.0832C30.739 25.1458 31.2707 24.6701 31.2707 24.0833Z" fill="#0729A1"/>
</svg>
