<svg width="32" height="32" viewBox="0 0 32 32" fill="none" xmlns="http://www.w3.org/2000/svg">
<path fill-rule="evenodd" clip-rule="evenodd" d="M6.66667 24H5.33333C4.59733 24 4 23.4027 4 22.6667V20H20V8H26.2227C27.712 8 28.356 8.768 28.804 9.476C29.596 10.7293 30.852 12.7187 31.616 13.98C31.8667 14.396 32 14.8733 32 15.36V21.3333C32 22.828 31.0293 24 29.3333 24H28C28 26.208 26.208 28 24 28C21.792 28 20 26.208 20 24H14.6667C14.6667 26.208 12.8747 28 10.6667 28C8.45867 28 6.66667 26.208 6.66667 24ZM10.6667 22.4C11.5493 22.4 12.2667 23.1173 12.2667 24C12.2667 24.8827 11.5493 25.6 10.6667 25.6C9.784 25.6 9.06667 24.8827 9.06667 24C9.06667 23.1173 9.784 22.4 10.6667 22.4ZM24 22.4C24.8827 22.4 25.6 23.1173 25.6 24C25.6 24.8827 24.8827 25.6 24 25.6C23.1173 25.6 22.4 24.8827 22.4 24C22.4 23.1173 23.1173 22.4 24 22.4ZM10.6667 10.6667H0V8H10.6667V6.66667H4V5.33333C4 4.59733 4.59733 4 5.33333 4H17.3333C18.0693 4 18.6667 4.59733 18.6667 5.33333V18.6667H4V14.6667H1.33333V12H10.6667V10.6667ZM22.6667 10.6667V14.6667H28.9533L27.0507 11.3387C26.8133 10.9227 26.372 10.6667 25.8933 10.6667H22.6667Z" fill="#0729A1"/>
</svg>
