<svg width="32" height="32" viewBox="0 0 32 32" fill="none" xmlns="http://www.w3.org/2000/svg">
<g clip-path="url(#clip0_316_2971)">
<path d="M30.5793 9.33333C30.9385 9.33333 31.2299 9.632 31.2299 10V10.6813C31.2299 11.7387 30.025 12 29.1271 12L27.714 9.33333H30.5793ZM28.7042 14.008C29.5357 15.5893 29.9352 17.0107 29.9352 18.896C29.9352 20.7227 29.4186 22.2733 28.6274 24.204V26.6667C28.6274 27.4027 28.0445 28 27.3262 28H25.3743C24.656 28 24.0731 27.4027 24.0731 26.6667V25.3333H7.15686V26.6667C7.15686 27.4027 6.5739 28 5.85561 28H3.90374C3.18545 28 2.6025 27.4027 2.6025 26.6667V24.204C1.81134 22.2733 1.29474 20.7227 1.29474 18.896C1.29474 17.0107 1.69422 15.5893 2.52572 14.008C3.60446 11.9587 4.93433 9.404 6.33838 7.00533C7.41581 5.16267 7.98055 4.72933 9.30262 4.48667C11.2961 4.12 13.0997 4 15.615 4C18.1303 4 19.9338 4.12 21.9273 4.48667C23.2494 4.72933 23.8141 5.16267 24.8916 7.00533C26.2956 9.404 27.6255 11.9587 28.7042 14.008V14.008ZM7.80749 18C7.80749 16.896 6.93305 16 5.85561 16C4.77818 16 3.90374 16.896 3.90374 18C3.90374 19.104 4.77818 20 5.85561 20C6.93305 20 7.80749 19.104 7.80749 18ZM20.82 19.3333C20.82 18.9653 20.5285 18.6667 20.1693 18.6667H11.0606C10.7015 18.6667 10.41 18.9653 10.41 19.3333C10.41 19.7013 10.7015 20 11.0606 20H20.1693C20.5285 20 20.82 19.7013 20.82 19.3333ZM24.6469 11.964C24.6469 11.964 23.684 9.52933 22.5246 7.77467C22.2617 7.37733 21.8545 7.10533 21.3938 7.02C19.4276 6.65733 17.7048 6.54133 15.615 6.54133C13.5252 6.54133 11.8023 6.65733 9.83613 7.02C9.37549 7.104 8.9682 7.376 8.70535 7.77467C7.54594 9.528 6.58301 11.964 6.58301 11.964C8.71706 12.3813 12.1901 12.6267 15.615 12.6267C19.0399 12.6267 22.5129 12.3813 24.6469 11.964ZM27.3262 18C27.3262 16.896 26.4518 16 25.3743 16C24.2969 16 23.4225 16.896 23.4225 18C23.4225 19.104 24.2969 20 25.3743 20C26.4518 20 27.3262 19.104 27.3262 18ZM3.51597 9.33333H0.650624C0.291479 9.33333 0 9.632 0 10V10.6813C0 11.7387 1.20496 12 2.10282 12L3.51597 9.33333Z" fill="#0729A1"/>
</g>
<defs>
<clipPath id="clip0_316_2971">
<rect width="31.2299" height="32" fill="white"/>
</clipPath>
</defs>
</svg>
