<svg width="33" height="33" viewBox="0 0 33 33" fill="none" xmlns="http://www.w3.org/2000/svg">
<g clip-path="url(#clip0_1013_141)">
<path d="M32.5051 3.91878C31.605 5.56593 30.4876 7.01005 29.2007 8.18953L29.1611 8.22391C29.1743 8.46407 29.1809 8.82478 29.1809 9.30603C29.1786 11.6296 28.9025 13.9402 28.3614 16.1632L28.3966 15.9954C27.8508 18.2994 27.0329 20.4887 25.97 22.4909L26.014 22.4015C24.965 24.4156 23.6928 26.2336 22.2355 27.8012L22.2091 27.8287C20.6662 29.4463 18.9041 30.7055 17.0061 31.5467L16.8873 31.592C14.9458 32.483 12.704 32.9973 10.3665 32.9973H10.2191H10.2268H10.0871C6.33609 32.9973 2.84469 31.6017 -0.0703125 29.2023L-0.0010125 29.2559C0.459887 29.3219 0.993387 29.359 1.53459 29.359H1.61159H1.60719L1.74579 29.3604C4.83349 29.3604 7.67039 28.0198 9.90449 25.7772L9.87919 25.8019C8.49752 25.7697 7.15784 25.2027 6.04475 24.179C4.93165 23.1553 4.09993 21.7253 3.66419 20.086L3.65099 20.0269C4.02719 20.1053 4.46279 20.152 4.90609 20.1562H4.90939C5.51748 20.157 6.12298 20.0571 6.71009 19.8592L6.66169 19.8729C5.16218 19.5028 3.81256 18.4916 2.84469 17.0129L2.83589 16.9978C1.85337 15.5486 1.31564 13.7095 1.31899 11.8099L1.32009 11.6944V11.6999V11.5968C2.23691 12.247 3.26626 12.6093 4.31979 12.6528H4.33189C3.43842 11.9063 2.70162 10.9023 2.18359 9.72541L2.16599 9.68278C1.63497 8.46425 1.35841 7.09799 1.36189 5.71041C1.36189 4.16216 1.69849 2.71291 2.28589 1.46991L2.26939 1.50841C3.90561 4.02496 5.93641 6.09648 8.23689 7.59553L8.34139 7.65741C10.5656 9.12453 13.1836 10.054 15.9611 10.2204L16.0029 10.2218C15.8945 9.59743 15.8395 8.96042 15.839 8.32153V8.32016C15.8405 6.6508 16.243 5.02047 16.9944 3.64036C17.7457 2.26025 18.8113 1.19394 20.053 0.579552C21.2948 -0.0348352 22.6555 -0.168992 23.959 0.194459C25.2624 0.55791 26.4485 1.40222 27.3637 2.61803L27.367 2.62216C28.8801 2.25985 30.33 1.56528 31.6493 0.570657L31.591 0.611907C31.11 2.53055 30.0774 4.15838 28.6925 5.18103L28.6617 5.20166C30.0173 5.01367 31.3415 4.56518 32.5876 3.87203L32.5029 3.91466L32.5051 3.91878Z" fill="white"/>
</g>
<defs>
<clipPath id="clip0_1013_141">
<rect width="33" height="33" fill="white"/>
</clipPath>
</defs>
</svg>
